<svg version="1.1" xmlns="http://www.w3.org/2000/svg" width="1600" height="366" viewBox="0 0 1600 366" overflow="visible" xmlns:xlink="http://www.w3.org/1999/xlink">
	<g fill="#14A900">
		<path d="M391.337,133.354
			c14.426-13.693,22.844-32.905,22.844-55.503v-2.189c0-45.404-34.481-75.378-82.985-75.378H312.13
			c-49.561,0-83.563,29.429-83.563,75.378v2.189c0,22.205,9.034,41.674,24.049,55.584
			c-18.915,15.216-31.122,37.343-31.122,61.569v5.983c0,46.887,35.62,77.145,89.463,77.145h22.026
			c52.821,0,88.27-30.666,88.27-77.145v-5.983C421.253,170.183,409.754,148.322,391.337,133.354 M271.513,75.662
			c0-20.298,19.539-32.429,38.43-32.429h22.861c18.889,0,38.426,12.131,38.426,32.429v2.189
			c0,22.144-14.888,34.845-40.855,34.845h-18.003c-24.059,0-40.859-14.329-40.859-34.845V75.662z M378.302,200.987
			c0,22.451-22.799,34.195-45.319,34.195h-22.026c-22.55,0-46.515-11.982-46.515-34.195v-5.983
			c0-23.195,24.789-39.356,47.035-39.356h0.895h18.003h0.894c26.814,0,47.033,16.92,47.033,39.356V200.987z"/>
		<path d="M1017.181,146.78
			c-12.533-2.717-26.15-5.089-37.694-10.961c-9.348-4.753-16.537-16.345-8.92-26.203c5.742-7.43,18.313-9.094,27.071-9.9
			c10.449-0.96,21.04-0.269,31.408,1.198c19.721,2.791,40.092,8.222,57.62,17.898c2.771,1.53,6.093-0.497,6.093-3.662V77.139
			c0-1.717-1.006-3.277-2.599-3.921c-40.652-16.401-97.76-23.132-131.641-8.082c-23.027,10.229-35.715,29.214-35.715,53.456
			c0,51.676,49.289,62.359,85.278,70.163c12.791,2.771,29.524,4.884,40.462,12.636c4.872,3.453,8.574,9.196,7.906,15.131
			c-0.811,7.222-7.577,12.313-14.357,14.93c-30.883,11.923-75.145-0.858-106.088-7.891c-2.612-0.594-5.196,1.357-5.196,4.037
			v35.433c0,1.968,1.46,3.697,3.382,4.117c37.262,8.133,61.172,10.9,88.943,10.9c0.478,0,0.955-0.003,1.433-0.003
			c26.494-0.089,50.447-10.661,64.079-28.282c11.033-14.26,14.521-32.217,9.826-50.561
			C1089.048,162.36,1049.201,153.722,1017.181,146.78"/>
		<path d="M1161.517,56.451h-34.6
			c-2.306,0-4.175,1.869-4.175,4.175v213.497c0,2.306,1.869,4.176,4.175,4.176h34.6c2.306,0,4.175-1.87,4.175-4.176V60.625
			C1165.691,58.32,1163.822,56.451,1161.517,56.451"/>
		<path d="M1516.488,56.479h-67.148
			c-0.052-0.001-0.094-0.029-0.146-0.029h-34.598c-2.306,0-4.177,1.869-4.177,4.175v213.497c0,2.306,1.871,4.176,4.177,4.176
			h34.598c2.307,0,4.177-1.87,4.177-4.176V99.431h59.171c24.521,0,44.398,19.879,44.398,44.4v130.292
			c0,2.306,1.871,4.176,4.177,4.176h34.707c2.307,0,4.177-1.87,4.177-4.176V139.992
			C1600,93.871,1562.609,56.479,1516.488,56.479"/>
		<path d="M112.623,100.539c-12.079,0-28.011,1.531-42.448,3.764
			c-2.036,0.315-3.505,2.082-3.505,4.143v34.902c0,2.618,2.324,4.566,4.9,4.091c12.011-2.212,27.045-4.016,41.898-3.948
			c24.065,0.11,43.744,20.523,43.743,44.589v2.516c0,24.624-19.963,44.587-44.588,44.587H90.811
			c-26.091,0-47.438-21.349-47.438-47.439v-2.513V126.59c0-67.19,42.971-83.64,74.3-83.64h43.49c2.305,0,4.174-1.87,4.174-4.175
			V4.176c0-2.306-1.869-4.176-4.174-4.176H114.67C58.291,0-0.812,31.074,0.427,122.859v71.185h0.171
			c0,47.838,36.994,84.088,87.362,84.088h24.663c51.343,0,87.54-35.978,87.54-87.542v-2.509
			C200.163,138.991,161.712,100.539,112.623,100.539"/>
		<path d="M1377.24,56.302l-77.78,0.043
			c-64.929,0-112.752,46.402-112.752,107.932v5.084c0,61.698,41.314,107.928,100.542,107.928c1.063,0,2.104,0.021,3.139,0.021
			c7.284,0,13.871-0.536,20.102-1.356c2.079-0.273,3.591-2.076,3.591-4.172v-34.695c0-2.622-2.347-4.503-4.936-4.082
			c-6.019,0.979-13.077,1.426-21.284,1.338c-40.995-0.581-58.521-33.056-58.521-64.982v-5.084
			c0-37.651,31.207-64.981,72.313-64.981h36.813v73.905c0,1.78-0.058,3.377-0.086,5.06v89.473
			c0.035-0.016,0.058-0.035,0.086-0.05v10.344c0,29.306-18.454,44.797-53.367,44.797c-27.498,0-56.602-5.31-77.725-10.238
			c-2.624-0.613-5.061,1.373-5.061,4.068v35.487c0,1.97,1.302,3.669,3.227,4.086c22.557,4.889,51.413,9.545,79.559,9.545
			c58.514,0,96.319-28.503,96.319-84.366V173.201V60.477C1381.417,58.17,1379.547,56.301,1377.24,56.302"/>
		<path d="M904.31,147.915c0-50.289-40.769-91.057-91.057-91.057
			H796.52c-51.971,0-94.103,42.131-94.103,94.102v25.464c0,52.9,38.481,93.232,95.764,100.363
			c7.519,0.938,15.393,1.355,23.451,1.355c24.378,0,50.284-3.885,72.717-9.029c1.906-0.437,3.213-2.141,3.213-4.095v-35.546
			c0-2.729-2.52-4.698-5.164-4.026c-28.271,7.19-62.777,11.975-88.911,8.721c-35.307-4.395-58.123-27.061-58.123-57.743V150.96
			c0-28.249,22.901-51.151,51.152-51.151h16.738c23.921,0,43.66,17.593,47.344,40.486l-84.751,6.68
			c-2.172,0.17-3.847,1.983-3.847,4.16v32.711c0,2.442,2.089,4.363,4.521,4.159l124.01-10.339
			c2.162-0.179,3.825-1.988,3.825-4.158v-22.143l-0.046-0.047V147.915z"/>
		<path d="M563.131,0.298h-81.057h-13.062h-21.746
			c-2.309,0-4.182,1.872-4.182,4.18v199.745c0,2.305,1.869,4.174,4.175,4.174h34.816c2.305,0,4.174-1.869,4.174-4.174V42.32
			h72.082c44.583,0,80.725,36.143,80.725,80.725v30.644c0,44.588-36.145,80.734-80.734,80.734h-72.073v-0.059h-38.99
			c-2.306,0-4.175,1.869-4.175,4.175v35.584c0,2.305,1.87,4.175,4.175,4.175h15.131h23.859h74.41
			c67.514,0,121.555-53.314,121.555-119.081V119.38C682.214,53.613,628.898,0.298,563.131,0.298"/>
	</g>
</svg>